<?xml version="1.0" encoding="UTF-8" standalone="no"?>
<!-- Created with Inkscape (http://www.inkscape.org/) -->
<svg
   xmlns:dc="http://purl.org/dc/elements/1.1/"
   xmlns:cc="http://creativecommons.org/ns#"
   xmlns:rdf="http://www.w3.org/1999/02/22-rdf-syntax-ns#"
   xmlns:svg="http://www.w3.org/2000/svg"
   xmlns="http://www.w3.org/2000/svg"
   xmlns:sodipodi="http://sodipodi.sourceforge.net/DTD/sodipodi-0.dtd"
   xmlns:inkscape="http://www.inkscape.org/namespaces/inkscape"
   width="32"
   height="32"
   id="svg2"
   sodipodi:version="0.32"
   inkscape:version="0.46"
   version="1.0"
   sodipodi:docname="archive.svg"
   inkscape:output_extension="org.inkscape.output.svg.inkscape"
   inkscape:export-filename="C:\Users\Администратор\Desktop\newmenu\css\icons\red\archive.png"
   inkscape:export-xdpi="90"
   inkscape:export-ydpi="90">
  <defs
     id="defs4">
    <inkscape:perspective
       sodipodi:type="inkscape:persp3d"
       inkscape:vp_x="0 : 526.18109 : 1"
       inkscape:vp_y="0 : 1000 : 0"
       inkscape:vp_z="744.09448 : 526.18109 : 1"
       inkscape:persp3d-origin="372.04724 : 350.78739 : 1"
       id="perspective10" />
    <inkscape:perspective
       id="perspective2392"
       inkscape:persp3d-origin="372.04724 : 350.78739 : 1"
       inkscape:vp_z="744.09448 : 526.18109 : 1"
       inkscape:vp_y="0 : 1000 : 0"
       inkscape:vp_x="0 : 526.18109 : 1"
       sodipodi:type="inkscape:persp3d" />
  </defs>
  <sodipodi:namedview
     id="base"
     pagecolor="#ffffff"
     bordercolor="#666666"
     borderopacity="1.0"
     gridtolerance="10000"
     guidetolerance="10"
     objecttolerance="10"
     inkscape:pageopacity="0.0"
     inkscape:pageshadow="2"
     inkscape:zoom="3.959798"
     inkscape:cx="104.49686"
     inkscape:cy="24.189735"
     inkscape:document-units="px"
     inkscape:current-layer="layer1"
     showgrid="false"
     inkscape:window-width="1280"
     inkscape:window-height="750"
     inkscape:window-x="-8"
     inkscape:window-y="-8" />
  <metadata
     id="metadata7">
    <rdf:RDF>
      <cc:Work
         rdf:about="">
        <dc:format>image/svg+xml</dc:format>
        <dc:type
           rdf:resource="http://purl.org/dc/dcmitype/StillImage" />
      </cc:Work>
    </rdf:RDF>
  </metadata>
  <g
     inkscape:label="Layer 1"
     inkscape:groupmode="layer"
     id="layer1">
    <path
       style="opacity:1;fill:#d40000;fill-opacity:1;fill-rule:evenodd;stroke:none;stroke-width:1;stroke-miterlimit:4;stroke-dasharray:none;stroke-dashoffset:0;stroke-opacity:1"
       d="M 7.3125 3.71875 C 5.6438949 3.71875 4.28125 5.0501446 4.28125 6.71875 L 4.28125 25.96875 C 4.28125 27.637355 5.6438951 28.96875 7.3125 28.96875 L 24.78125 28.96875 C 26.449855 28.96875 27.78125 27.637355 27.78125 25.96875 L 27.78125 6.71875 C 27.78125 5.0501449 26.449856 3.71875 24.78125 3.71875 L 7.3125 3.71875 z M 9.0625 5.25 L 23.6875 5.25 C 24.451758 5.25 25.0625 5.8607413 25.0625 6.625 L 25.0625 14.625 C 25.0625 15.389258 24.451759 16 23.6875 16 L 9.0625 16 C 8.2982411 16.000001 7.6875 15.389259 7.6875 14.625 L 7.6875 6.625 C 7.6875 5.8607416 8.2982413 5.25 9.0625 5.25 z M 16.21875 18.03125 C 18.088601 18.031251 19.59375 19.494225 19.59375 21.3125 C 19.593749 23.130775 18.088601 24.625 16.21875 24.625 C 14.348899 24.625 12.8125 23.130775 12.8125 21.3125 C 12.8125 19.494226 14.348899 18.03125 16.21875 18.03125 z "
       id="rect2424" />
    <rect
       style="opacity:1;fill:#d40000;fill-opacity:1;fill-rule:evenodd;stroke:none;stroke-width:1;stroke-miterlimit:4;stroke-dasharray:none;stroke-dashoffset:0;stroke-opacity:1"
       id="rect2434"
       width="4.7423749"
       height="6.5879517"
       x="9.4871778"
       y="7.0097041"
       ry="1.3795283" />
  </g>
</svg>
