<?xml version="1.0" encoding="UTF-8" standalone="no"?>
<!-- Created with Inkscape (http://www.inkscape.org/) -->

<svg
   xmlns:dc="http://purl.org/dc/elements/1.1/"
   xmlns:cc="http://creativecommons.org/ns#"
   xmlns:rdf="http://www.w3.org/1999/02/22-rdf-syntax-ns#"
   xmlns:svg="http://www.w3.org/2000/svg"
   xmlns="http://www.w3.org/2000/svg"
   xmlns:sodipodi="http://sodipodi.sourceforge.net/DTD/sodipodi-0.dtd"
   xmlns:inkscape="http://www.inkscape.org/namespaces/inkscape"
   width="32"
   height="32"
   id="svg2"
   sodipodi:version="0.32"
   inkscape:version="0.92.4 (unknown)"
   version="1.0"
   sodipodi:docname="admin.svg">
  <defs
     id="defs4">
    <inkscape:perspective
       sodipodi:type="inkscape:persp3d"
       inkscape:vp_x="0 : 526.18109 : 1"
       inkscape:vp_y="0 : 1000 : 0"
       inkscape:vp_z="744.09448 : 526.18109 : 1"
       inkscape:persp3d-origin="372.04724 : 350.78739 : 1"
       id="perspective10" />
    <inkscape:perspective
       id="perspective2392"
       inkscape:persp3d-origin="372.04724 : 350.78739 : 1"
       inkscape:vp_z="744.09448 : 526.18109 : 1"
       inkscape:vp_y="0 : 1000 : 0"
       inkscape:vp_x="0 : 526.18109 : 1"
       sodipodi:type="inkscape:persp3d" />
    <inkscape:perspective
       id="perspective2467"
       inkscape:persp3d-origin="372.04724 : 350.78739 : 1"
       inkscape:vp_z="744.09448 : 526.18109 : 1"
       inkscape:vp_y="0 : 1000 : 0"
       inkscape:vp_x="0 : 526.18109 : 1"
       sodipodi:type="inkscape:persp3d" />
    <inkscape:perspective
       id="perspective2480"
       inkscape:persp3d-origin="372.04724 : 350.78739 : 1"
       inkscape:vp_z="744.09448 : 526.18109 : 1"
       inkscape:vp_y="0 : 1000 : 0"
       inkscape:vp_x="0 : 526.18109 : 1"
       sodipodi:type="inkscape:persp3d" />
  </defs>
  
  <metadata
     id="metadata7">
    <rdf:RDF>
      <cc:Work
         rdf:about="">
        <dc:format>image/svg+xml</dc:format>
        <dc:type
           rdf:resource="http://purl.org/dc/dcmitype/StillImage" />
      </cc:Work>
    </rdf:RDF>
  </metadata>
  <g
     inkscape:label="Layer 1"
     inkscape:groupmode="layer"
     id="layer1">
    <path
       id="path2456"
       style="opacity:1;fill:#d40000;fill-opacity:1;fill-rule:evenodd;stroke:none;stroke-width:1;stroke-miterlimit:4;stroke-dasharray:none;stroke-dashoffset:0;stroke-opacity:1"
       d="m 16.033203,2.4492188 c -7.2487326,0 -13.1152342,6.0637325 -13.1152342,13.5214842 0,7.457752 5.8665022,13.490234 13.1152342,13.490235 7.248732,0 13.142577,-6.032482 13.142578,-13.490235 0,-7.4577519 -5.893845,-13.5214843 -13.142578,-13.5214842 z m 0,3.6054687 c 2.643203,1e-7 5.029799,1.109948 6.746094,2.8964844 l -4.824219,3.5605471 c -0.111262,0.08212 -0.202284,0.179352 -0.283203,0.283203 C 17.120689,12.497197 16.493153,12.3125 15.8125,12.3125 c -0.591211,0 -1.145238,0.140298 -1.646484,0.369141 -0.08766,-0.127711 -0.190919,-0.24755 -0.320313,-0.345703 L 9.3261719,8.90625 C 11.039313,7.1453823 13.411634,6.0546875 16.033203,6.0546875 Z m -8.3906249,5.2148435 4.5195309,3.429688 c 0.0163,0.01237 0.03417,0.01969 0.05078,0.03125 -0.148881,0.388722 -0.244141,0.802176 -0.244141,1.238281 0,1.600483 1.100785,2.936105 2.615234,3.419922 -0.03412,0.112896 -0.05859,0.231148 -0.05859,0.355469 v 5.541015 C 10.015953,24.545227 6.5703125,20.5594 6.5703125,15.738281 c 0,-1.613121 0.3905373,-3.131088 1.0722656,-4.46875 z m 16.8183599,0.08008 c 0.656803,1.318346 1.033203,2.807347 1.033203,4.388672 0,4.901026 -3.560199,8.940322 -8.179688,9.582031 v -5.576171 c 0,-0.146665 -0.02932,-0.285889 -0.07617,-0.416016 1.401929,-0.534527 2.386718,-1.829762 2.386719,-3.359375 0,-0.337212 -0.06294,-0.658095 -0.152344,-0.96875 0.07274,-0.03681 0.144972,-0.07682 0.212891,-0.126953 z M 15.8125,14.46875 c 0.833925,0 1.5,0.65695 1.5,1.5 -1e-6,0.843051 -0.666075,1.53125 -1.5,1.53125 -0.833925,1e-6 -1.53125,-0.6882 -1.53125,-1.53125 0,-0.84305 0.697325,-1.5 1.53125,-1.5 z" />
  </g>
</svg>
