<?xml version="1.0" encoding="UTF-8" standalone="no"?>
<!-- Created with Inkscape (http://www.inkscape.org/) -->

<svg
   xmlns:dc="http://purl.org/dc/elements/1.1/"
   xmlns:cc="http://creativecommons.org/ns#"
   xmlns:rdf="http://www.w3.org/1999/02/22-rdf-syntax-ns#"
   xmlns:svg="http://www.w3.org/2000/svg"
   xmlns="http://www.w3.org/2000/svg"
   xmlns:sodipodi="http://sodipodi.sourceforge.net/DTD/sodipodi-0.dtd"
   xmlns:inkscape="http://www.inkscape.org/namespaces/inkscape"
   width="32"
   height="32"
   viewBox="0 0 31.999999 31.999998"
   id="svg2"
   version="1.1"
   inkscape:version="0.92.4 (unknown)"
   sodipodi:docname="catalog.svg"
   inkscape:export-filename="H:\Users\Therapont\Pictures\catalog.png"
   inkscape:export-xdpi="90"
   inkscape:export-ydpi="90">
  <defs
     id="defs4" />
  <metadata
     id="metadata7">
    <rdf:RDF>
      <cc:Work
         rdf:about="">
        <dc:format>image/svg+xml</dc:format>
        <dc:type
           rdf:resource="http://purl.org/dc/dcmitype/StillImage" />
        <dc:title />
      </cc:Work>
    </rdf:RDF>
  </metadata>
  <g
     id="layer1"
     inkscape:groupmode="layer"
     inkscape:label="Layer 1">
    <path
       style="fill:#d40000;fill-opacity:1;stroke:none"
       d="M21.855469 3.9824219C21.428363 3.9824219 21.083984 4.3268007 21.083984 4.7539062C21.083984 4.7539062 21.083984 10.111328 21.083984 10.111328C21.083984 10.538434 21.428363 10.882812 21.855469 10.882812C21.855469 10.882812 27.269531 10.882812 27.269531 10.882812C27.696637 10.882812 28.039062 10.538434 28.039062 10.111328C28.039062 10.111328 28.039062 4.7539062 28.039062 4.7539062C28.039063 4.3268007 27.696637 3.9824219 27.269531 3.9824219C27.269531 3.9824219 21.855469 3.9824219 21.855469 3.9824219C21.855469 3.9824219 21.855469 3.9824219 21.855469 3.9824219M4.8710938 4.0058594C4.4439881 4.0058594 4.0996094 4.348285 4.0996094 4.7753906C4.0996094 4.7753906 4.0996094 10.134766 4.0996094 10.134766C4.0996094 10.561871 4.4439881 10.904297 4.8710938 10.904297C4.8710938 10.904297 10.195312 10.904297 10.195312 10.904297C10.622418 10.904297 10.964844 10.561871 10.964844 10.134766C10.964844 10.134766 10.964844 4.7753906 10.964844 4.7753906C10.964844 4.348285 10.622418 4.0058594 10.195312 4.0058594C10.195312 4.0058594 4.8710938 4.0058594 4.8710938 4.0058594C4.8710938 4.0058594 4.8710938 4.0058594 4.8710938 4.0058594M13.4375 4.0058594C13.010394 4.0058594 12.666016 4.348285 12.666016 4.7753906C12.666016 4.7753906 12.666016 10.134766 12.666016 10.134766C12.666016 10.561871 13.010394 10.904297 13.4375 10.904297C13.4375 10.904297 18.761719 10.904297 18.761719 10.904297C19.188824 10.904297 19.533203 10.561871 19.533203 10.134766C19.533203 10.134766 19.533203 4.7753906 19.533203 4.7753906C19.533203 4.348285 19.188824 4.0058594 18.761719 4.0058594C18.761719 4.0058594 13.4375 4.0058594 13.4375 4.0058594C13.4375 4.0058594 13.4375 4.0058594 13.4375 4.0058594M21.808594 12.544922C21.381488 12.544922 21.039062 12.887348 21.039062 13.314453C21.039062 13.314453 21.039062 18.673828 21.039062 18.673828C21.039063 19.100934 21.381488 19.443359 21.808594 19.443359C21.808594 19.443359 27.222656 19.443359 27.222656 19.443359C27.649762 19.443359 27.994141 19.100934 27.994141 18.673828C27.994141 18.673828 27.994141 13.314453 27.994141 13.314453C27.994141 12.887348 27.649762 12.544922 27.222656 12.544922C27.222656 12.544922 21.808594 12.544922 21.808594 12.544922C21.808594 12.544922 21.808594 12.544922 21.808594 12.544922M4.8242188 12.566406C4.3971132 12.566406 4.0527344 12.910785 4.0527344 13.337891C4.0527344 13.337891 4.0527344 18.695312 4.0527344 18.695312C4.0527344 19.122418 4.3971132 19.466797 4.8242188 19.466797C4.8242188 19.466797 10.148438 19.466797 10.148438 19.466797C10.575543 19.466797 10.919922 19.122418 10.919922 18.695312C10.919922 18.695312 10.919922 13.337891 10.919922 13.337891C10.919922 12.910785 10.575543 12.566406 10.148438 12.566406C10.148438 12.566406 4.8242188 12.566406 4.8242188 12.566406C4.8242188 12.566406 4.8242188 12.566406 4.8242188 12.566406M13.392578 12.566406C12.965473 12.566406 12.621094 12.910785 12.621094 13.337891C12.621094 13.337891 12.621094 18.695312 12.621094 18.695312C12.621094 19.122418 12.965473 19.466797 13.392578 19.466797C13.392578 19.466797 18.716797 19.466797 18.716797 19.466797C19.143902 19.466797 19.488281 19.122418 19.488281 18.695312C19.488281 18.695312 19.488281 13.337891 19.488281 13.337891C19.488281 12.910785 19.143902 12.566406 18.716797 12.566406C18.716797 12.566406 13.392578 12.566406 13.392578 12.566406C13.392578 12.566406 13.392578 12.566406 13.392578 12.566406M21.855469 21.068359C21.428363 21.068359 21.083984 21.412738 21.083984 21.839844C21.083984 21.839844 21.083984 27.197266 21.083984 27.197266C21.083984 27.624371 21.428363 27.96875 21.855469 27.96875C21.855469 27.96875 27.269531 27.96875 27.269531 27.96875C27.696637 27.96875 28.039062 27.624371 28.039062 27.197266C28.039062 27.197266 28.039062 21.839844 28.039062 21.839844C28.039062 21.412738 27.696637 21.068359 27.269531 21.068359C27.269531 21.068359 21.855469 21.068359 21.855469 21.068359C21.855469 21.068359 21.855469 21.068359 21.855469 21.068359M4.8710938 21.091797C4.4439882 21.091797 4.0996094 21.434223 4.0996094 21.861328C4.0996094 21.861328 4.0996094 27.220703 4.0996094 27.220703C4.0996094 27.647809 4.4439882 27.990234 4.8710938 27.990234C4.8710938 27.990234 10.195312 27.990234 10.195312 27.990234C10.622418 27.990234 10.964844 27.647809 10.964844 27.220703C10.964844 27.220703 10.964844 21.861328 10.964844 21.861328C10.964844 21.434223 10.622418 21.091797 10.195312 21.091797C10.195312 21.091797 4.8710938 21.091797 4.8710938 21.091797C4.8710938 21.091797 4.8710938 21.091797 4.8710938 21.091797M13.4375 21.091797C13.010394 21.091797 12.666016 21.434223 12.666016 21.861328C12.666016 21.861328 12.666016 27.220703 12.666016 27.220703C12.666016 27.647809 13.010394 27.990234 13.4375 27.990234C13.4375 27.990234 18.761719 27.990234 18.761719 27.990234C19.188824 27.990234 19.533203 27.647809 19.533203 27.220703C19.533203 27.220703 19.533203 21.861328 19.533203 21.861328C19.533203 21.434223 19.188824 21.091797 18.761719 21.091797C18.761719 21.091797 13.4375 21.091797 13.4375 21.091797C13.4375 21.091797 13.4375 21.091797 13.4375 21.091797"
       id="rect4147" />
  </g>
</svg>
