<?xml version="1.0" encoding="UTF-8" standalone="no"?>
<!-- Created with Inkscape (http://www.inkscape.org/) -->

<svg
   xmlns:dc="http://purl.org/dc/elements/1.1/"
   xmlns:cc="http://creativecommons.org/ns#"
   xmlns:rdf="http://www.w3.org/1999/02/22-rdf-syntax-ns#"
   xmlns:svg="http://www.w3.org/2000/svg"
   xmlns="http://www.w3.org/2000/svg"
   xmlns:sodipodi="http://sodipodi.sourceforge.net/DTD/sodipodi-0.dtd"
   xmlns:inkscape="http://www.inkscape.org/namespaces/inkscape"
   width="16"
   height="16"
   viewBox="0 0 16 16"
   version="1.1"
   id="svg34"
   inkscape:version="0.92.4 (unknown)"
   sodipodi:docname="expandthread.svg">
  <defs
     id="defs28" />
  
  <metadata
     id="metadata31">
    <rdf:RDF>
      <cc:Work
         rdf:about="">
        <dc:format>image/svg+xml</dc:format>
        <dc:type
           rdf:resource="http://purl.org/dc/dcmitype/StillImage" />
        <dc:title />
      </cc:Work>
    </rdf:RDF>
  </metadata>
  <g
     id="layer1"
     inkscape:groupmode="layer"
     inkscape:label="Layer 1">
    <path
       id="rect5331-5-1-0-6"
       style="fill:#d40000;fill-opacity:1;stroke:none"
       d="M2.0070136 13.45778C2.0070136 13.45778 2.0070136 12.49352 2.0070136 12.49352C2.0070136 11.93304 2.4582372 11.48181 3.0187258 11.48181C3.0187258 11.48181 8.9863154 11.48181 8.9863154 11.48181C9.5468039 11.48181 9.9980276 11.93304 9.9980276 12.49352C9.9980276 12.49352 9.9980276 13.45778 9.9980276 13.45778C9.9980276 14.01827 9.5468039 14.4695 8.9863154 14.4695C8.9863154 14.4695 3.0187258 14.4695 3.0187258 14.4695C2.4582372 14.4695 2.0070136 14.01827 2.0070136 13.45778C2.0070136 13.45778 2.0070136 13.45778 2.0070136 13.45778M2.0791616 8.63428C2.0791616 8.63428 2.0791616 7.47443 2.0791616 7.47443C2.0791616 6.95937 2.4938074 6.54473 3.0088608 6.54473C3.0088608 6.54473 11.1349747 6.54473 11.1349747 6.54473C11.6500287 6.54473 12.0646747 6.95937 12.0646747 7.47443C12.0646747 7.47443 12.0646747 8.63428 12.0646747 8.63428C12.0646747 9.14933 11.6500287 9.56398 11.1349747 9.56398C11.1349747 9.56398 3.0088611 9.56398 3.0088611 9.56398C2.4938077 9.56398 2.0791619 9.14933 2.0791619 8.63428C2.0791619 8.63428 2.0791616 8.63428 2.0791616 8.63428M2.0108436 3.53462C2.0108436 3.53462 2.0108436 2.46673 2.0108436 2.46673C2.0108436 1.94806 2.428399 1.53051 2.9470664 1.53051C2.9470664 1.53051 13.056764 1.53051 13.056764 1.53051C13.575431 1.53051 13.992986 1.94806 13.992986 2.46673C13.992986 2.46673 13.992986 3.53462 13.992986 3.53462C13.992986 4.05328 13.575431 4.47084 13.056764 4.47084C13.056764 4.47084 2.9470668 4.47084 2.9470668 4.47084C2.4283994 4.47084 2.010844 4.05328 2.010844 3.53462C2.010844 3.53462 2.0108436 3.53462 2.0108436 3.53462" />
  </g>
</svg>
