<?xml version="1.0" encoding="UTF-8" standalone="no"?>
<!-- Created with Inkscape (http://www.inkscape.org/) -->

<svg
   xmlns:dc="http://purl.org/dc/elements/1.1/"
   xmlns:cc="http://creativecommons.org/ns#"
   xmlns:rdf="http://www.w3.org/1999/02/22-rdf-syntax-ns#"
   xmlns:svg="http://www.w3.org/2000/svg"
   xmlns="http://www.w3.org/2000/svg"
   xmlns:sodipodi="http://sodipodi.sourceforge.net/DTD/sodipodi-0.dtd"
   xmlns:inkscape="http://www.inkscape.org/namespaces/inkscape"
   width="32"
   height="32"
   id="svg2"
   sodipodi:version="0.32"
   inkscape:version="0.92.4 (unknown)"
   version="1.0"
   sodipodi:docname="search.svg"
   inkscape:output_extension="org.inkscape.output.svg.inkscape">
  <defs
     id="defs4">
    <inkscape:perspective
       sodipodi:type="inkscape:persp3d"
       inkscape:vp_x="0 : 526.18109 : 1"
       inkscape:vp_y="0 : 1000 : 0"
       inkscape:vp_z="744.09448 : 526.18109 : 1"
       inkscape:persp3d-origin="372.04724 : 350.78739 : 1"
       id="perspective10" />
    <inkscape:perspective
       id="perspective2392"
       inkscape:persp3d-origin="372.04724 : 350.78739 : 1"
       inkscape:vp_z="744.09448 : 526.18109 : 1"
       inkscape:vp_y="0 : 1000 : 0"
       inkscape:vp_x="0 : 526.18109 : 1"
       sodipodi:type="inkscape:persp3d" />
  </defs>
  <sodipodi:namedview
     id="base"
     pagecolor="#ffffff"
     bordercolor="#666666"
     borderopacity="1.0"
     gridtolerance="10000"
     guidetolerance="10"
     objecttolerance="10"
     inkscape:pageopacity="0.0"
     inkscape:pageshadow="2"
     inkscape:zoom="3.959798"
     inkscape:cx="48.559663"
     inkscape:cy="24.189735"
     inkscape:document-units="px"
     inkscape:current-layer="layer1"
     showgrid="false"
     inkscape:window-width="1280"
     inkscape:window-height="750"
     inkscape:window-x="0"
     inkscape:window-y="27"
     inkscape:window-maximized="0" />
  <metadata
     id="metadata7">
    <rdf:RDF>
      <cc:Work
         rdf:about="">
        <dc:format>image/svg+xml</dc:format>
        <dc:type
           rdf:resource="http://purl.org/dc/dcmitype/StillImage" />
      </cc:Work>
    </rdf:RDF>
  </metadata>
  <g
     inkscape:label="Layer 1"
     inkscape:groupmode="layer"
     id="layer1">
    <path
       style="opacity:1;stroke-opacity:1;fill-opacity:1;fill-rule:evenodd;stroke-dashoffset:0;stroke:none;stroke-miterlimit:4;stroke-dasharray:none;stroke-width:2.0;fill:#d40000"
       d="M11.875 1.9375C5.880755 1.9375 1.0 6.6523565 1.0 12.4375C1.0 18.222643 5.880755 22.90625 11.875 22.90625C14.228149 22.90625 16.397643 22.176087 18.173828 20.949219C18.173828 20.949219 26.367188 29.017578 26.367188 29.017578C26.367188 29.017578 29.294922 26.59375 29.294922 26.59375C29.294922 26.59375 20.869141 18.292969 20.869141 18.292969C22.037695 16.622245 22.71875 14.606929 22.71875 12.4375C22.71875 6.6523565 17.869245 1.9375 11.875 1.9375C11.875 1.9375 11.875 1.9375 11.875 1.9375M12.0 4.96875C16.112331 4.9687499 19.4375 8.3251691 19.4375 12.4375C19.4375 14.298403 18.751626 15.99353 17.625 17.296875C17.625 17.296875 15.908203 18.71875 15.908203 18.71875C15.908203 18.71875 15.933594 18.744141 15.933594 18.744141C14.792075 19.456972 13.447014 19.875 12.0 19.875C7.8876689 19.875001 4.53125 16.549831 4.53125 12.4375C4.5312498 8.325169 7.8876691 4.96875 12.0 4.96875C12.0 4.96875 12.0 4.96875 12.0 4.96875"
       id="path2397" />
  </g>
</svg>
