<?xml version="1.0" encoding="UTF-8" standalone="no"?><svg xmlns="http://www.w3.org/2000/svg" width="32" height="32" version="1.0" class="svg-icon icon-admin" viewBox="0 0 32 32"><path d="M16.033 2.45c-7.249 0-13.115 6.063-13.115 13.52 0 7.458 5.866 13.49 13.115 13.49 7.249 0 13.143-6.032 13.143-13.49 0-7.457-5.894-13.52-13.143-13.52zm0 3.605c2.643 0 5.03 1.11 6.746 2.896l-4.824 3.56c-.111.083-.202.18-.283.284a3.894 3.894 0 0 0-1.86-.482 3.95 3.95 0 0 0-1.646.369 1.47 1.47 0 0 0-.32-.346l-4.52-3.43c1.713-1.76 4.086-2.851 6.707-2.851zm-8.39 5.215l4.52 3.43c.015.012.033.019.05.03a3.45 3.45 0 0 0-.244 1.239c0 1.6 1.1 2.936 2.615 3.42a1.224 1.224 0 0 0-.059.355v5.541c-4.509-.74-7.955-4.726-7.955-9.547 0-1.613.39-3.13 1.073-4.468zm16.818.08a9.814 9.814 0 0 1 1.033 4.388c0 4.901-3.56 8.94-8.18 9.582v-5.576c0-.147-.029-.286-.076-.416 1.402-.534 2.387-1.83 2.387-3.36 0-.336-.063-.657-.152-.968.072-.037.145-.077.213-.127zm-8.648 3.119c.833 0 1.5.657 1.5 1.5s-.667 1.531-1.5 1.531a1.54 1.54 0 0 1-1.532-1.531c0-.843.698-1.5 1.531-1.5z" class="svg-icon-graphic"/></svg>