<?xml version="1.0" encoding="UTF-8" standalone="no"?><svg xmlns="http://www.w3.org/2000/svg" width="32" height="32" version="1.0" class="svg-icon icon-archive" viewBox="0 0 32 32"><path d="M7.313 3.719c-1.67 0-3.032 1.331-3.032 3v19.25c0 1.668 1.363 3 3.032 3H24.78c1.669 0 3-1.332 3-3V6.719c0-1.669-1.331-3-3-3H7.313zm1.75 1.531h14.624c.765 0 1.375.61 1.375 1.375v8c0 .764-.61 1.375-1.375 1.375H9.063c-.764 0-1.374-.61-1.374-1.375v-8c0-.764.61-1.375 1.375-1.375zm1.804 1.76c-.764 0-1.38.614-1.38 1.379v3.83c0 .764.616 1.379 1.38 1.379h1.983c.764 0 1.38-.615 1.38-1.38v-3.83c0-.764-.616-1.378-1.38-1.378h-1.983zM16.22 18.03c1.87 0 3.375 1.463 3.375 3.282 0 1.818-1.505 3.312-3.375 3.312s-3.407-1.494-3.407-3.313c0-1.818 1.537-3.28 3.407-3.28z" class="svg-icon-graphic"/></svg>