<?xml version="1.0" encoding="UTF-8" standalone="no"?><svg xmlns="http://www.w3.org/2000/svg" width="32" height="32" class="svg-icon icon-catalog" viewBox="0 0 32 32"><path d="M21.855 3.982a.77.77 0 0 0-.771.772v5.357a.77.77 0 0 0 .771.772h5.415c.427 0 .77-.345.77-.772V4.754a.769.769 0 0 0-.77-.772h-5.415m-16.984.024a.769.769 0 0 0-.771.77v5.359c0 .427.344.77.771.77h5.324c.427 0 .77-.343.77-.77v-5.36a.767.767 0 0 0-.77-.77H4.871m8.566 0a.769.769 0 0 0-.771.77v5.36c0 .427.344.77.771.77h5.325a.769.769 0 0 0 .771-.77v-5.36a.769.769 0 0 0-.771-.77h-5.325m8.372 8.54a.767.767 0 0 0-.77.77v5.359c0 .427.342.77.77.77h5.414a.769.769 0 0 0 .771-.77v-5.36a.769.769 0 0 0-.771-.77h-5.414m-16.985.022a.77.77 0 0 0-.771.772v5.357a.77.77 0 0 0 .771.772h5.324a.77.77 0 0 0 .772-.772v-5.357a.77.77 0 0 0-.772-.772H4.824m8.569 0a.77.77 0 0 0-.772.772v5.357a.77.77 0 0 0 .772.772h5.324a.77.77 0 0 0 .771-.772v-5.357a.77.77 0 0 0-.771-.772h-5.324m8.462 8.502a.77.77 0 0 0-.771.772v5.357a.77.77 0 0 0 .771.772h5.415c.427 0 .77-.345.77-.772V21.84a.769.769 0 0 0-.77-.772h-5.415m-16.984.024a.769.769 0 0 0-.771.77v5.359c0 .427.344.77.771.77h5.324c.427 0 .77-.343.77-.77v-5.36a.767.767 0 0 0-.77-.77H4.871m8.566 0a.769.769 0 0 0-.771.77v5.36c0 .427.344.77.771.77h5.325a.769.769 0 0 0 .771-.77v-5.36a.769.769 0 0 0-.771-.77h-5.325" class="svg-icon-graphic"/></svg>