<?xml version="1.0" encoding="UTF-8" standalone="no"?><svg xmlns="http://www.w3.org/2000/svg" width="16" height="16" class="svg-icon icon-expandthread" viewBox="0 0 16 16"><path d="M2.007 13.458v-.964c0-.561.451-1.012 1.012-1.012h5.967c.56 0 1.012.451 1.012 1.012v.964a1.01 1.01 0 0 1-1.012 1.011H3.02a1.01 1.01 0 0 1-1.012-1.011m.072-4.824v-1.16c0-.515.415-.93.93-.93h8.126c.515 0 .93.415.93.93v1.16c0 .515-.415.93-.93.93H3.009a.928.928 0 0 1-.93-.93m-.068-5.1V2.468c0-.519.417-.936.936-.936h10.11c.518 0 .936.417.936.936v1.068a.934.934 0 0 1-.936.936H2.947a.934.934 0 0 1-.936-.936" class="svg-icon-graphic"/></svg>