<?xml version="1.0" encoding="UTF-8" standalone="no"?><svg xmlns="http://www.w3.org/2000/svg" width="16" height="16" class="svg-icon icon-locked" viewBox="0 0 16 16"><path d="M7.252 1.047a2.23 2.23 0 0 0-2.236 2.236v2.774a2.366 2.366 0 0 0-1.97 2.336v3.23A2.371 2.371 0 0 0 5.425 14h5.137a2.371 2.371 0 0 0 2.377-2.377v-3.23c0-1.172-.84-2.135-1.954-2.334V3.283a2.23 2.23 0 0 0-2.236-2.236H7.252M7 1.984h1.953c.563 0 1.016.453 1.016 1.016v3.016H5.984V3c0-.563.453-1.016 1.016-1.016m-.867 5.97h3.703a.553.553 0 1 1 0 1.109H6.133a.553.553 0 1 1 0-1.11m.008 3.016h3.812a.53.53 0 1 1 0 1.062H6.141a.53.53 0 1 1 0-1.062" class="svg-icon-graphic"/></svg>