<?xml version="1.0" encoding="UTF-8" standalone="no"?><svg xmlns="http://www.w3.org/2000/svg" width="16" height="16" class="svg-icon icon-plus" viewBox="0 0 16 16"><path d="M7.959 1.004a1.992 1.992 0 0 0-1.996 1.998v2.982h-3.07c-1.04 0-1.877.838-1.877 1.877v.227c0 1.04.837 1.877 1.877 1.877h3.07v3.033c0 1.107.89 1.998 1.996 1.998h.016a1.992 1.992 0 0 0 1.996-1.998V9.965h3.136c1.04 0 1.877-.837 1.877-1.877V7.86c0-1.04-.837-1.877-1.877-1.877H9.971V3.002c0-1.107-.89-1.998-1.996-1.998h-.016" class="svg-icon-graphic"/></svg>