<?xml version="1.0" encoding="UTF-8" standalone="no"?><svg xmlns="http://www.w3.org/2000/svg" width="32" height="32" version="1.0" class="svg-icon icon-search" viewBox="0 0 32 32"><path d="M11.875 1.938C5.881 1.938 1 6.652 1 12.438c0 5.785 4.88 10.468 10.875 10.468 2.353 0 4.523-.73 6.299-1.957l8.193 8.069 2.928-2.424-8.426-8.301a10.175 10.175 0 0 0 1.85-5.855c0-5.786-4.85-10.5-10.844-10.5M12 4.967c4.112 0 7.438 3.357 7.438 7.47 0 1.86-.686 3.556-1.813 4.859l-1.717 1.422.026.025A7.399 7.399 0 0 1 12 19.875c-4.112 0-7.469-3.325-7.469-7.438C4.531 8.325 7.888 4.97 12 4.97" class="svg-icon-graphic"/></svg>