<?xml version="1.0" encoding="UTF-8" standalone="no"?><svg xmlns="http://www.w3.org/2000/svg" width="16" height="16" class="svg-icon icon-x" viewBox="0 0 16 16"><path d="M11.734 2.04a2.155 2.155 0 0 0-1.521.636L7.947 4.951l-2.36-2.314a2.036 2.036 0 0 0-2.868.016l-.172.171a2 2 0 0 0 .017 2.848l2.36 2.315-2.305 2.312a2.126 2.126 0 0 0 .018 3.03l.011.011c.85.834 2.212.827 3.053-.018l2.303-2.312 2.41 2.363a2.034 2.034 0 0 0 2.867-.015l.172-.174a1.997 1.997 0 0 0-.017-2.846l-2.409-2.363 2.266-2.276a2.126 2.126 0 0 0-.018-3.029l-.01-.012a2.162 2.162 0 0 0-1.53-.619" class="svg-icon-graphic"/></svg>