<?xml version="1.0" encoding="UTF-8" standalone="no"?><svg xmlns="http://www.w3.org/2000/svg" xmlns:xlink="http://www.w3.org/1999/xlink"><symbol class="svg-icon icon-admin" viewBox="0 0 32 32" id="admin" xmlns="http://www.w3.org/2000/svg"><path d="M16.033 2.45c-7.249 0-13.115 6.063-13.115 13.52 0 7.458 5.866 13.49 13.115 13.49 7.249 0 13.143-6.032 13.143-13.49 0-7.457-5.894-13.52-13.143-13.52zm0 3.605c2.643 0 5.03 1.11 6.746 2.896l-4.824 3.56c-.111.083-.202.18-.283.284a3.894 3.894 0 0 0-1.86-.482 3.95 3.95 0 0 0-1.646.369 1.47 1.47 0 0 0-.32-.346l-4.52-3.43c1.713-1.76 4.086-2.851 6.707-2.851zm-8.39 5.215l4.52 3.43c.015.012.033.019.05.03a3.45 3.45 0 0 0-.244 1.239c0 1.6 1.1 2.936 2.615 3.42a1.224 1.224 0 0 0-.059.355v5.541c-4.509-.74-7.955-4.726-7.955-9.547 0-1.613.39-3.13 1.073-4.468zm16.818.08a9.814 9.814 0 0 1 1.033 4.388c0 4.901-3.56 8.94-8.18 9.582v-5.576c0-.147-.029-.286-.076-.416 1.402-.534 2.387-1.83 2.387-3.36 0-.336-.063-.657-.152-.968.072-.037.145-.077.213-.127zm-8.648 3.119c.833 0 1.5.657 1.5 1.5s-.667 1.531-1.5 1.531a1.54 1.54 0 0 1-1.532-1.531c0-.843.698-1.5 1.531-1.5z" class="svg-icon-graphic"/></symbol><symbol class="svg-icon icon-archive" viewBox="0 0 32 32" id="archive" xmlns="http://www.w3.org/2000/svg"><path d="M7.313 3.719c-1.67 0-3.032 1.331-3.032 3v19.25c0 1.668 1.363 3 3.032 3H24.78c1.669 0 3-1.332 3-3V6.719c0-1.669-1.331-3-3-3H7.313zm1.75 1.531h14.624c.765 0 1.375.61 1.375 1.375v8c0 .764-.61 1.375-1.375 1.375H9.063c-.764 0-1.374-.61-1.374-1.375v-8c0-.764.61-1.375 1.375-1.375zm1.804 1.76c-.764 0-1.38.614-1.38 1.379v3.83c0 .764.616 1.379 1.38 1.379h1.983c.764 0 1.38-.615 1.38-1.38v-3.83c0-.764-.616-1.378-1.38-1.378h-1.983zM16.22 18.03c1.87 0 3.375 1.463 3.375 3.282 0 1.818-1.505 3.312-3.375 3.312s-3.407-1.494-3.407-3.313c0-1.818 1.537-3.28 3.407-3.28z" class="svg-icon-graphic"/></symbol><symbol class="svg-icon icon-catalog" viewBox="0 0 32 32" id="catalog" xmlns="http://www.w3.org/2000/svg"><path d="M21.855 3.982a.77.77 0 0 0-.771.772v5.357a.77.77 0 0 0 .771.772h5.415c.427 0 .77-.345.77-.772V4.754a.769.769 0 0 0-.77-.772h-5.415m-16.984.024a.769.769 0 0 0-.771.77v5.359c0 .427.344.77.771.77h5.324c.427 0 .77-.343.77-.77v-5.36a.767.767 0 0 0-.77-.77H4.871m8.566 0a.769.769 0 0 0-.771.77v5.36c0 .427.344.77.771.77h5.325a.769.769 0 0 0 .771-.77v-5.36a.769.769 0 0 0-.771-.77h-5.325m8.372 8.54a.767.767 0 0 0-.77.77v5.359c0 .427.342.77.77.77h5.414a.769.769 0 0 0 .771-.77v-5.36a.769.769 0 0 0-.771-.77h-5.414m-16.985.022a.77.77 0 0 0-.771.772v5.357a.77.77 0 0 0 .771.772h5.324a.77.77 0 0 0 .772-.772v-5.357a.77.77 0 0 0-.772-.772H4.824m8.569 0a.77.77 0 0 0-.772.772v5.357a.77.77 0 0 0 .772.772h5.324a.77.77 0 0 0 .771-.772v-5.357a.77.77 0 0 0-.771-.772h-5.324m8.462 8.502a.77.77 0 0 0-.771.772v5.357a.77.77 0 0 0 .771.772h5.415c.427 0 .77-.345.77-.772V21.84a.769.769 0 0 0-.77-.772h-5.415m-16.984.024a.769.769 0 0 0-.771.77v5.359c0 .427.344.77.771.77h5.324c.427 0 .77-.343.77-.77v-5.36a.767.767 0 0 0-.77-.77H4.871m8.566 0a.769.769 0 0 0-.771.77v5.36c0 .427.344.77.771.77h5.325a.769.769 0 0 0 .771-.77v-5.36a.769.769 0 0 0-.771-.77h-5.325" class="svg-icon-graphic"/></symbol><symbol class="svg-icon icon-expand" viewBox="0 0 16 16" id="expand" xmlns="http://www.w3.org/2000/svg"><path d="M9.96.98l5.056 5.32V.98H9.96M3.627 3.957A2.637 2.637 0 0 0 .984 6.6v5.777a2.637 2.637 0 0 0 2.643 2.643h6.707a2.637 2.637 0 0 0 2.643-2.643V6.6a2.637 2.637 0 0 0-2.643-2.643H3.627" class="svg-icon-graphic"/></symbol><symbol class="svg-icon icon-expandthread" viewBox="0 0 16 16" id="expandthread" xmlns="http://www.w3.org/2000/svg"><path d="M2.007 13.458v-.964c0-.561.451-1.012 1.012-1.012h5.967c.56 0 1.012.451 1.012 1.012v.964a1.01 1.01 0 0 1-1.012 1.011H3.02a1.01 1.01 0 0 1-1.012-1.011m.072-4.824v-1.16c0-.515.415-.93.93-.93h8.126c.515 0 .93.415.93.93v1.16c0 .515-.415.93-.93.93H3.009a.928.928 0 0 1-.93-.93m-.068-5.1V2.468c0-.519.417-.936.936-.936h10.11c.518 0 .936.417.936.936v1.068a.934.934 0 0 1-.936.936H2.947a.934.934 0 0 1-.936-.936" class="svg-icon-graphic"/></symbol><symbol class="svg-icon icon-locked" viewBox="0 0 16 16" id="locked" xmlns="http://www.w3.org/2000/svg"><path d="M7.252 1.047a2.23 2.23 0 0 0-2.236 2.236v2.774a2.366 2.366 0 0 0-1.97 2.336v3.23A2.371 2.371 0 0 0 5.425 14h5.137a2.371 2.371 0 0 0 2.377-2.377v-3.23c0-1.172-.84-2.135-1.954-2.334V3.283a2.23 2.23 0 0 0-2.236-2.236H7.252M7 1.984h1.953c.563 0 1.016.453 1.016 1.016v3.016H5.984V3c0-.563.453-1.016 1.016-1.016m-.867 5.97h3.703a.553.553 0 1 1 0 1.109H6.133a.553.553 0 1 1 0-1.11m.008 3.016h3.812a.53.53 0 1 1 0 1.062H6.141a.53.53 0 1 1 0-1.062" class="svg-icon-graphic"/></symbol><symbol class="svg-icon icon-mainpage" viewBox="0 0 32 32" id="mainpage" xmlns="http://www.w3.org/2000/svg"><path d="M6.25 12.906V28.25h20.188V12.906H6.25zm3.563 2.313h6.25v5.875h-6.25v-5.875z" class="svg-icon-graphic"/><path d="M2.321 15.214l28.215-.178L16.522 2.893l-14.2 12.321z" class="svg-icon-graphic"/></symbol><symbol class="svg-icon icon-minus" viewBox="0 0 16 16" id="minus" xmlns="http://www.w3.org/2000/svg"><path d="M2.893 6.01c-1.04 0-1.877.837-1.877 1.877v.226c0 1.04.837 1.877 1.877 1.877h10.214c1.04 0 1.877-.837 1.877-1.877v-.226c0-1.04-.837-1.877-1.877-1.877H2.893" class="svg-icon-graphic"/></symbol><symbol class="svg-icon icon-plus" viewBox="0 0 16 16" id="plus" xmlns="http://www.w3.org/2000/svg"><path d="M7.959 1.004a1.992 1.992 0 0 0-1.996 1.998v2.982h-3.07c-1.04 0-1.877.838-1.877 1.877v.227c0 1.04.837 1.877 1.877 1.877h3.07v3.033c0 1.107.89 1.998 1.996 1.998h.016a1.992 1.992 0 0 0 1.996-1.998V9.965h3.136c1.04 0 1.877-.837 1.877-1.877V7.86c0-1.04-.837-1.877-1.877-1.877H9.971V3.002c0-1.107-.89-1.998-1.996-1.998h-.016" class="svg-icon-graphic"/></symbol><symbol class="svg-icon icon-refresh" viewBox="0 0 16 16" id="refresh" xmlns="http://www.w3.org/2000/svg"><path d="M10.437 10.35l3.632 1.075c-12.8 9.911-16.616-4.18-5.895-8.056l-1.68-2.262 7.407 1.02-2.598 6.55-1.449-2.79c-8.393 2.238-4.648 7.909.583 4.463" class="svg-icon-graphic"/></symbol><symbol class="svg-icon icon-reply" viewBox="0 0 16 16" id="reply" xmlns="http://www.w3.org/2000/svg"><path d="M8 .988C4.127.988.987 3.634.986 6.898c.002 1.565.74 3.065 2.051 4.172l-1.201 3.942 4.394-2.4c.578.129 1.172.196 1.77.199 1.86 0 3.644-.623 4.96-1.732 1.315-1.109 2.054-2.613 2.054-4.18C15.013 3.633 11.873.988 8 .988" class="svg-icon-graphic"/></symbol><symbol class="svg-icon icon-search" viewBox="0 0 32 32" id="search" xmlns="http://www.w3.org/2000/svg"><path d="M11.875 1.938C5.881 1.938 1 6.652 1 12.438c0 5.785 4.88 10.468 10.875 10.468 2.353 0 4.523-.73 6.299-1.957l8.193 8.069 2.928-2.424-8.426-8.301a10.175 10.175 0 0 0 1.85-5.855c0-5.786-4.85-10.5-10.844-10.5M12 4.967c4.112 0 7.438 3.357 7.438 7.47 0 1.86-.686 3.556-1.813 4.859l-1.717 1.422.026.025A7.399 7.399 0 0 1 12 19.875c-4.112 0-7.469-3.325-7.469-7.438C4.531 8.325 7.888 4.97 12 4.97" class="svg-icon-graphic"/></symbol><symbol class="svg-icon icon-star" viewBox="0 0 16 16" id="star" xmlns="http://www.w3.org/2000/svg"><path d="M8.008 1.143L5.753 5.658.73 6.393l3.646 3.505-.862 4.96 4.494-2.343 4.493 2.342-.862-4.959 3.631-3.52-5.023-.72-2.24-4.515" class="svg-icon-graphic"/></symbol><symbol class="svg-icon icon-sticky" viewBox="0 0 16 16" id="sticky" xmlns="http://www.w3.org/2000/svg"><path d="M1.524 13.742l4.314-5.985-2.93-2.966 4.27.436 3.633-3.777 3.198 3-3.76 3.588.396 4.332-3.073-3.005-6.048 4.377" class="svg-icon-graphic"/></symbol><symbol class="svg-icon icon-wt" viewBox="0 0 32 32" id="wt" xmlns="http://www.w3.org/2000/svg"><path d="M16.031 1.656l-4.656 9.219L1 12.375l7.531 7.156L6.75 29.656l9.281-4.781 9.282 4.781-1.782-10.125 7.5-7.187-10.375-1.469-4.625-9.219zm.063 6.407l2.718 5.468 6.094.875-4.406 4.281 1.031 6.032-5.437-2.844-5.469 2.844 1.063-6.032-4.438-4.25 6.094-.906 2.75-5.469z" class="svg-icon-graphic"/></symbol><symbol class="svg-icon icon-x" viewBox="0 0 16 16" id="x" xmlns="http://www.w3.org/2000/svg"><path d="M11.734 2.04a2.155 2.155 0 0 0-1.521.636L7.947 4.951l-2.36-2.314a2.036 2.036 0 0 0-2.868.016l-.172.171a2 2 0 0 0 .017 2.848l2.36 2.315-2.305 2.312a2.126 2.126 0 0 0 .018 3.03l.011.011c.85.834 2.212.827 3.053-.018l2.303-2.312 2.41 2.363a2.034 2.034 0 0 0 2.867-.015l.172-.174a1.997 1.997 0 0 0-.017-2.846l-2.409-2.363 2.266-2.276a2.126 2.126 0 0 0-.018-3.029l-.01-.012a2.162 2.162 0 0 0-1.53-.619" class="svg-icon-graphic"/></symbol></svg>